<svg width="863" height="67" viewBox="0 0 863 67" fill="none" xmlns="http://www.w3.org/2000/svg">
<path d="M0.5 0.5H833C849.292 0.5 862.5 13.7076 862.5 30V37C862.5 53.2924 849.292 66.5 833 66.5H30C13.7076 66.5 0.5 53.2924 0.5 37V0.5Z" fill="#FF7D1A"/>
<path d="M370.967 43.5C375.728 43.5 378.486 42.747 378.486 38.894C378.486 35.494 375.106 34.722 371.826 34.212L371.266 34.127L370.987 34.086L370.637 34.033C367.937 33.628 367.457 33.245 367.457 32.562C367.457 32.084 367.947 31.231 370.3 31.231C372.755 31.231 373.793 31.878 373.793 33.101V33.235H378.074V33.102C378.074 30.713 376.724 27.864 370.3 27.864C364.348 27.864 363.099 30.448 363.099 32.616C363.099 35.713 365.862 36.702 370.322 37.291C370.532 37.319 370.755 37.345 370.981 37.372C372.65 37.569 374.153 37.792 374.153 38.957C374.153 39.967 372.538 40.179 370.855 40.179C368.058 40.179 367.071 39.586 367.071 38.259V38.125H362.752L362.75 38.426V38.743C362.758 39.533 362.868 40.656 363.807 41.605C365.053 42.862 367.462 43.5 370.967 43.5ZM384.177 43.5V36.01C384.177 33.906 384.724 31.587 388.353 31.587C392.268 31.587 392.131 34.364 392.121 35.629V43.5H396.301V35.732C396.301 33.468 396.125 27.966 389.569 27.966C386.791 27.966 385.377 28.877 384.374 30.246H384.177V27.967H379.97V43.5H384.177ZM406.136 43.5C411.23 43.5 413.923 41.43 414.353 38.095H410.28C409.894 39.115 408.65 39.815 406.137 39.815C403.416 39.815 402.175 38.785 401.887 36.709H414.414C414.654 34.579 414.385 31.292 411.388 29.269V29.274C410.076 28.359 408.332 27.809 406.137 27.809C400.897 27.809 397.801 30.581 397.801 35.654C397.801 40.824 400.82 43.5 406.136 43.5ZM410.235 33.926H402.047C402.533 32.352 403.811 31.495 406.136 31.495C409.13 31.495 409.891 32.762 410.235 33.926ZM433.249 43.5V27.957H429.04V30.24H428.864C427.811 28.863 426.055 27.957 423.187 27.957C416.754 27.957 415.962 33.25 415.934 35.592V35.729C415.934 37.821 416.666 43.5 423.175 43.5C426.089 43.5 427.859 42.682 428.909 41.331H429.04V43.5H433.249ZM424.395 39.877C420.399 39.877 419.948 36.845 419.948 35.729C419.948 34.519 420.374 31.581 424.403 31.581C428.034 31.581 428.777 33.625 428.777 35.729C428.777 38.079 428.035 39.877 424.395 39.877ZM451.576 43.5L445.047 34.455L451.635 27.967H445.808L438.972 34.723V23.5H434.785V43.454H438.972V40.44L441.992 37.464L446.35 43.5H451.576ZM461.476 43.5C466.57 43.5 469.262 41.43 469.693 38.095H465.619C465.232 39.115 463.989 39.815 461.476 39.815C458.755 39.815 457.514 38.785 457.226 36.709H469.753C469.993 34.579 469.724 31.292 466.727 29.269V29.274C465.415 28.359 463.67 27.809 461.476 27.809C456.236 27.809 453.14 30.581 453.14 35.654C453.14 40.824 456.16 43.5 461.476 43.5ZM465.574 33.926H457.387C457.872 32.352 459.15 31.495 461.476 31.495C464.47 31.495 465.231 32.762 465.574 33.926ZM475.51 43.5V36.53C475.51 34.427 476.441 31.988 479.56 31.988C480.89 31.988 481.953 32.224 482.345 32.334L483.015 28.358C482.287 28.198 481.389 27.966 480.258 27.966C477.593 27.966 476.636 28.76 475.772 30.248H475.51V27.966H471.3V43.5H475.51ZM492.731 43.5C497.492 43.5 500.25 42.747 500.25 38.894C500.25 35.494 496.87 34.722 493.59 34.212L493.03 34.127L492.751 34.086L492.402 34.033C489.701 33.628 489.221 33.245 489.221 32.562C489.221 32.084 489.711 31.231 492.064 31.231C494.519 31.231 495.557 31.878 495.557 33.101V33.235H499.839V33.102C499.839 30.713 498.489 27.864 492.064 27.864C486.112 27.864 484.863 30.448 484.863 32.616C484.863 35.713 487.626 36.702 492.087 37.291C492.297 37.319 492.519 37.345 492.745 37.372C494.414 37.569 495.917 37.792 495.917 38.957C495.917 39.967 494.302 40.179 492.619 40.179C489.823 40.179 488.835 39.586 488.835 38.259V38.125H484.516L484.515 38.426V38.743C484.523 39.533 484.632 40.656 485.571 41.605C486.817 42.862 489.226 43.5 492.731 43.5Z" fill="#1D2026"/>
<path d="M0.5 0.5H833C849.292 0.5 862.5 13.7076 862.5 30V37C862.5 53.2924 849.292 66.5 833 66.5H30C13.7076 66.5 0.5 53.2924 0.5 37V0.5Z" stroke="black"/>
</svg>
